<svg xmlns="http://www.w3.org/2000/svg" xmlns:xlink="http://www.w3.org/1999/xlink" width="353" height="353" version="1.1" viewBox="0 0 353 353"><title>right-column-layout</title><desc>Created with Sketch.</desc><g id="Page-1" fill="none" fill-rule="evenodd" stroke="none" stroke-width="1"><g id="right-column-layout" fill-rule="nonzero"><g id="g4" fill="#4D4D4D" transform="translate(176.169491, 176.762710) scale(-1, 1) rotate(-180.000000) translate(-176.169491, -176.762710) translate(0.169491, 0.762710)"><path id="path2" d="M0,352 L16,352 L336,352 L352,352 L352,336 L352,16 L352,0 L336,0 L16,0 L0,0 L0,16 L0,336 L0,352 Z M32,320 L32,32 L160,32 L160,320 L32,320 Z M192,320 L192,32 L320,32 L320,320 L192,320 Z"/></g><polygon id="path868" fill="gray" fill-opacity=".329" points="192.956 176.792 192.956 33.063 256.414 33.063 319.871 33.063 319.871 176.792 319.871 320.521 256.414 320.521 192.956 320.521"/></g></g></svg>