<?xml version="1.0" encoding="UTF-8"?>
<svg width="1257px" height="1257px" viewBox="0 0 1257 1257" version="1.1" xmlns="http://www.w3.org/2000/svg" xmlns:xlink="http://www.w3.org/1999/xlink">
    <!-- Generator: Sketch 51.3 (57544) - http://www.bohemiancoding.com/sketch -->
    <title>thumb</title>
    <desc>Created with Sketch.</desc>
    <defs></defs>
    <g id="Page-1" stroke="none" stroke-width="1" fill="none" fill-rule="evenodd">
        <g id="text">
            <g id="Group-4" transform="translate(234.000000, 260.000000)">
                <path d="M499,18.5 L820,18.5" id="Path-3" stroke="#000000" stroke-width="40"></path>
                <path d="M499,200.5 L820,200.5" id="Path-3-Copy" stroke="#000000" stroke-width="40"></path>
                <path d="M499,394.5 L820,394.5" id="Path-3-Copy-2" stroke="#000000" stroke-width="40"></path>
                <path d="M0,577.402778 L820,577.402778" id="Path-3-Copy-3" stroke="#000000" stroke-width="40"></path>
                <path d="M0,732.402778 L820,732.402778" id="Path-3-Copy-4" stroke="#000000" stroke-width="40"></path>
                <path d="M7.82863341,80.4920128 L183.103037,80.4920128 C171.795011,57.8977636 157.87744,36.715655 141.350325,16.4749734 L182.668113,0 C198.32538,22.5942492 213.112798,49.4249201 226.595445,80.4920128 L391.43167,80.4920128 L391.43167,124.739084 L324.888286,124.739084 C304.011931,196.28754 273.132321,256.068158 232.249458,304.551651 C277.481562,344.5623 334.021692,377.982961 401,404.342918 L377.949024,442 C307.926247,413.757188 249.646421,378.453674 203.544469,336.089457 C154.398048,383.160809 93.9436009,417.99361 22.181128,440.587859 L0,401.047923 C70.4577007,381.277955 128.302603,350.210863 174.404555,307.375932 C126.562907,255.597444 93.0737527,194.404686 74.3720174,124.739084 L7.82863341,124.739084 L7.82863341,80.4920128 Z M113.950108,124.739084 C132.21692,182.636848 161.791757,233.473908 203.109544,276.779553 C238.338395,234.886049 264.868764,184.048988 282.265727,124.739084 L113.950108,124.739084 Z" id="文" fill="#000000"></path>
            </g>
        </g>
    </g>
</svg>