<?xml version="1.0" encoding="UTF-8"?>
<svg width="83px" height="44px" viewBox="0 0 83 44" version="1.1" xmlns="http://www.w3.org/2000/svg" xmlns:xlink="http://www.w3.org/1999/xlink">
    <title>编组 5</title>
    <defs>
        <linearGradient x1="0%" y1="65.9402392%" x2="100%" y2="34.0597608%" id="linearGradient-1">
            <stop stop-color="#FF4E50" offset="0%"></stop>
            <stop stop-color="#F9D423" offset="100%"></stop>
        </linearGradient>
    </defs>
    <g id="页面-1" stroke="none" stroke-width="1" fill="none" fill-rule="evenodd">
        <g id="编组-5">
            <path d="M16.2106408,0 L68.7110674,0 C70.9202064,0 72.4244536,1.790861 72.0708975,4 C72.0370353,4.21158258 71.9864388,4.42283163 71.9195844,4.63175858 L61.6799152,36.6317586 C61.0589447,38.5723542 59.1563206,40 57.1910584,40 L4.69063179,40 C2.48149279,40 0.977245631,38.209139 1.33080172,36 C1.36466392,35.7884174 1.41526039,35.5771684 1.48211486,35.3682414 L11.721784,3.36824142 C12.3427545,1.42764576 14.2453787,0 16.2106408,0 Z" id="矩形备份-2" fill="url(#linearGradient-1)"></path>
            <path d="M23.9501953,36.2597656 C25.0139974,36.2597656 26.1767578,35.8515625 27.4384766,35.0351562 C29.0465495,33.9960938 30.5680339,32.4003906 32.0029297,30.2480469 C33.7594401,27.625651 35.3056641,24.2858073 36.6416016,20.2285156 L36.6416016,20.2285156 L36.9755859,20.5625 C37.2724609,20.9088542 37.4332682,21.094401 37.4580078,21.1191406 C37.6806641,21.3417969 37.8538411,21.453125 37.9775391,21.453125 L37.9775391,21.453125 L39.4990234,19.96875 C39.3011068,19.8450521 38.9856771,19.5667318 38.5527344,19.1337891 C38.1197917,18.7008464 37.7672526,18.3235677 37.4951172,18.0019531 C38.1383464,15.6764323 38.4599609,13.7714844 38.4599609,12.2871094 C38.4599609,11.6191406 38.3733724,11.180013 38.2001953,10.9697266 C38.0270182,10.7594401 37.6682943,10.6542969 37.1240234,10.6542969 C36.4065755,10.6542969 35.961263,10.7408854 35.7880859,10.9140625 C35.4417318,11.3346354 35.1448568,12.0335286 34.8974609,13.0107422 C34.6500651,13.9879557 34.5263672,14.9589844 34.5263672,15.9238281 C34.5263672,16.6165365 34.6624349,17.2597656 34.9345703,17.8535156 C34.5634766,19.4121094 34.2913411,20.4635417 34.1181641,21.0078125 C33.8707682,21.7747396 33.5367839,22.640625 33.1162109,23.6054688 C32.0524089,26.0546875 30.7906901,28.2317708 29.3310547,30.1367188 C27.6240234,32.3880208 26.1272786,33.5136719 24.8408203,33.5136719 C24.444987,33.5136719 24.1171875,33.3219401 23.8574219,32.9384766 C23.5976562,32.555013 23.4677734,32.0416667 23.4677734,31.3984375 C23.4677734,30.9283854 23.5419922,30.3346354 23.6904297,29.6171875 C23.8388672,28.8997396 24.0491536,28.0214844 24.3212891,26.9824219 L24.3212891,26.9824219 L26.6962891,18.7070312 C26.8942057,18.0135498 27.1292318,17.0050252 27.4013672,15.6814575 C27.6735026,14.3578898 27.8095703,13.337382 27.8095703,12.6199341 C27.8095703,11.3087362 27.4261068,10.6531372 26.6591797,10.6531372 C25.273763,10.6531372 22.8245443,12.3354289 19.3115234,15.7000122 L19.3115234,15.7000122 L19.8681641,17.8894653 C20.3629557,17.493632 21.0185547,16.9741007 21.8349609,16.3308716 C23.2203776,15.2670695 24.0244141,14.7351685 24.2470703,14.7351685 C24.2965495,14.7846476 24.3212891,14.821757 24.3212891,14.8464966 C24.3707682,14.9207153 24.3955078,15.0073039 24.3955078,15.1062622 C24.3955078,15.6010539 24.1840617,16.5782674 23.7611694,18.0379028 L23.7611694,18.0379028 L21.5612793,25.5682068 C20.8531087,28.1670227 20.4990234,30.233551 20.4990234,31.7677917 C20.4990234,33.0793762 20.820638,34.1559347 21.4638672,34.997467 C22.1070964,35.8389994 22.9358724,36.2597656 23.9501953,36.2597656 Z M45.3623047,17.5195312 C46.0797526,17.5195312 46.5683594,17.3896484 46.828125,17.1298828 C47.0878906,16.8701172 47.3167318,16.4371745 47.5146484,15.8310547 C47.7125651,15.2249349 47.8115234,14.7239583 47.8115234,14.328125 C47.8115234,13.6354167 47.2054036,13.2890625 45.9931641,13.2890625 C45.3994141,13.2890625 44.9108073,13.6230469 44.5273438,14.2910156 C44.1438802,14.9589844 43.9521484,15.7259115 43.9521484,16.5917969 C43.9521484,17.2102865 44.4222005,17.5195312 45.3623047,17.5195312 Z M42.1708984,36.3339844 C43.2594401,36.3339844 44.5953776,35.8639323 46.1787109,34.9238281 C47.5146484,34.1321615 48.6650391,33.2539062 49.6298828,32.2890625 L49.6298828,32.2890625 L49.6298828,29.1347656 C48.8876953,29.827474 48.1455078,30.4954427 47.4033203,31.1386719 C45.6468099,32.6230469 44.4593099,33.3652344 43.8408203,33.3652344 C43.3707682,33.3652344 43.1357422,32.7714844 43.1357422,31.5839844 C43.1357422,30.5696615 43.2965495,29.3697917 43.6181641,27.984375 C43.9397786,26.5989583 44.4840495,24.7558594 45.2509766,22.4550781 L45.2509766,22.4550781 L45.6220703,21.3417969 L42.5048828,21.3417969 C41.7626953,23.2220052 41.1813151,25.0279948 40.7607422,26.7597656 C40.3401693,28.4915365 40.1298828,30.0253906 40.1298828,31.3613281 C40.1298828,32.7467448 40.2041016,33.7610677 40.3525391,34.4042969 C40.6494141,35.6907552 41.2555339,36.3339844 42.1708984,36.3339844 Z M52.6728516,43.5703125 C54.132487,43.5703125 55.4436849,43.1126302 56.6064453,42.1972656 C58.3382161,40.811849 59.2041016,38.610026 59.2041016,35.5917969 C60.2679036,35.1217448 61.1708984,34.7135417 61.9130859,34.3671875 C63.570638,33.5755208 64.758138,32.8828125 65.4755859,32.2890625 L65.4755859,32.2890625 L65.4755859,29.1347656 C64.5107422,30.124349 63.4098307,30.9654948 62.1728516,31.6582031 C61.4059245,32.1035156 60.3544922,32.5983073 59.0185547,33.1425781 C58.9195964,32.8209635 58.7216797,32.4869792 58.4248047,32.140625 C58.1279297,31.7942708 57.8186849,31.5345052 57.4970703,31.3613281 C60.2679036,29.827474 61.6533203,27.7369792 61.6533203,25.0898438 C61.6533203,23.9023438 61.2945964,22.9622396 60.5771484,22.2695312 C59.8597005,21.5768229 58.9072266,21.2304688 57.7197266,21.2304688 C56.0374349,21.2304688 54.4169922,22.2447917 52.8583984,24.2734375 C52.0172526,25.3867188 50.8792318,27.0813802 49.4443359,29.3574219 L49.4443359,29.3574219 L49.4443359,32.4375 C50.1370443,31.8190104 50.8544922,31.0026042 51.5966797,29.9882812 C52.1656901,29.1966146 52.7965495,28.2688802 53.4892578,27.2050781 C54.6272786,25.4733073 55.4127604,24.3847656 55.8457031,23.9394531 C56.2786458,23.4941406 56.7672526,23.2714844 57.3115234,23.2714844 C58.1774089,23.2714844 58.6103516,23.8157552 58.6103516,24.9042969 C58.6103516,25.7207031 58.3629557,26.6236979 57.8681641,27.6132812 C57.3733724,28.6028646 56.7796224,29.4192708 56.0869141,30.0625 C55.616862,29.9140625 55.258138,29.8398438 55.0107422,29.8398438 C54.5654297,29.8398438 54.1263021,30.0810547 53.6933594,30.5634766 C53.2604167,31.0458984 53.0439453,31.4726562 53.0439453,31.84375 C53.0439453,32.1653646 53.1676432,32.4127604 53.4150391,32.5859375 C53.6624349,32.7591146 53.9716797,32.8457031 54.3427734,32.8457031 C54.4912109,32.8457031 54.6767578,32.8085938 54.8994141,32.734375 C54.9736328,32.7096354 55.0725911,32.672526 55.1962891,32.6230469 C55.4684245,32.8209635 55.6848958,33.0498047 55.8457031,33.3095703 C56.0065104,33.5693359 56.1240234,33.9466146 56.1982422,34.4414062 C53.8974609,35.4804688 52.3141276,36.3958333 51.4482422,37.1875 C50.4091797,38.1276042 49.8896484,39.2161458 49.8896484,40.453125 C49.8896484,41.3932292 50.1370443,42.1477865 50.6318359,42.7167969 C51.1266276,43.2858073 51.8069661,43.5703125 52.6728516,43.5703125 Z M53.3037109,41.6035156 L53.0439453,41.6035156 C52.7470703,41.6035156 52.5120443,41.4798177 52.3388672,41.2324219 C52.1656901,40.985026 52.0791016,40.688151 52.0791016,40.3417969 C52.0791016,39.3769531 53.4150391,38.2513021 56.0869141,36.9648438 C55.9384766,38.4492188 55.6354167,39.5934245 55.1777344,40.3974609 C54.7200521,41.2014974 54.0953776,41.6035156 53.3037109,41.6035156 L53.3037109,41.6035156 Z M69.8544922,36.3710938 C73.4417318,36.3710938 77.1402995,34.9980469 80.9501953,32.2519531 L80.9501953,32.2519531 L80.9501953,29.1347656 C78.9957682,30.8417969 77.2639974,32.0725911 75.7548828,32.8271484 C74.2457682,33.5817057 72.7490234,33.9589844 71.2646484,33.9589844 C70.398763,33.9589844 69.7679036,33.5755208 69.3720703,32.8085938 C69.0999349,32.2890625 68.9638672,31.608724 68.9638672,30.7675781 L68.9638672,30.7675781 L68.9638672,30.6191406 L69.7431641,30.2851562 C71.7965495,29.4440104 73.2809245,28.6894531 74.1962891,28.0214844 C75.9280599,26.7597656 76.7939453,25.2877604 76.7939453,23.6054688 C76.7939453,21.7252604 75.804362,20.7851562 73.8251953,20.7851562 C71.7223307,20.7851562 69.866862,21.8304036 68.2587891,23.9208984 C66.6507161,26.0113932 65.8466797,28.4049479 65.8466797,31.1015625 C65.8466797,32.4622396 66.186849,33.6806641 66.8671875,34.7568359 C67.547526,35.8330078 68.5432943,36.3710938 69.8544922,36.3710938 Z M69.3349609,28.1699219 C69.6318359,26.8092448 70.2008464,25.6279297 71.0419922,24.6259766 C71.883138,23.6240234 72.7119141,23.1230469 73.5283203,23.1230469 C74.0973307,23.1230469 74.3818359,23.3951823 74.3818359,23.9394531 C74.3818359,24.6816406 73.9241536,25.430013 73.0087891,26.1845703 C72.0934245,26.9391276 70.8688151,27.6009115 69.3349609,28.1699219 Z" id="Vize" fill="#000000" fill-rule="nonzero"></path>
        </g>
    </g>
</svg>