<svg xmlns="http://www.w3.org/2000/svg" xmlns:xlink="http://www.w3.org/1999/xlink" width="147" height="110" version="1.1" viewBox="0 0 147 110"><title>path</title><defs><linearGradient id="linearGradient-1" x1="40.907%" x2="94.013%" y1="77.705%" y2="9.069%"><stop offset="0%" stop-color="#FF4E50"/><stop offset="100%" stop-color="#F9D423"/></linearGradient></defs><g id="page-1" fill="none" fill-rule="evenodd" stroke="none" stroke-width="1"><path id="path" fill="url(#linearGradient-1)" fill-rule="nonzero" d="M84.9,94.1 L131.8,12.8 L104.8,12.8 C102.4,12.7 100.1,14 99.1,16.1 C91,30.2 79.0498703,49.881716 76.4440351,54.1032005 C73.8381999,58.324685 73,60.0872824 73,60.0872824 C73,60.0872824 71.608816,56.0594712 71.612782,50.8832908 C71.6148989,48.1203915 72.0145113,45.0303076 73.2353599,42.0509395 C76.9810238,32.9099929 85.3975761,15.8445057 88.9,9.8 C92.3,3.9 97.5,0.9 104.4,0.8 L136.2,0.8 C139.9,0.8 143,2.1 144.9,5.4 C146.8,8.7 146.3,11.9 144.5,15.1 C127.4,44.7 110.3,74.3 93.3,103.9 C90,109.7 83.5,110.9 79,107.1 C78.2,106.4 77.5,105.6 77,104.6 L43.4,46.4 C42,43.9 40.2,43.1 37.3,43.1 C30.4,43.2 14.9,43.1 14.9,43.1 C14.9,43.1 25.8,61.8 29.2,68.1 C34.741995,76.6246784 45.8553315,73.4108294 49.9075484,75.7847983 C52.6090263,77.3674442 54.5065102,79.9058448 55.6,83.4 C55.6,83.4 40,83.9 32.8,83.4 C27.3,83.2 22.3,80.1 19.6,75.2 C13.5,65 7.5,54.6 1.6,44.2 C-0.9,40 0.5,34.5 4.8,32 C6.2,31.2 7.9,30.7 9.5,30.8 C19.2,30.8 28.8,30.7 38.5,30.8 C44.9,30.8 49.9,33.7 53.1,39.2 C63.4,56.9 84.9,94.1 84.9,94.1 Z"/></g></svg>