<svg xmlns="http://www.w3.org/2000/svg" xmlns:xlink="http://www.w3.org/1999/xlink" width="72" height="40" version="1.1" viewBox="0 0 72 40"><title>group</title><defs><linearGradient id="linearGradient-1" x1="-8.053%" x2="123.947%" y1="65.94%" y2="37.275%"><stop offset="0%" stop-color="#FF4E50"/><stop offset="100%" stop-color="#F9D423"/></linearGradient></defs><g id="page-1" fill="none" fill-rule="evenodd" stroke="none" stroke-width="1"><g id="group" fill-rule="nonzero" transform="translate(0.279298, 0.000000)"><path id="矩形备份-2" fill="url(#linearGradient-1)" d="M14.9313428,0 L67.4317694,0 C69.6409084,0 71.1451556,1.790861 70.7915995,4 C70.7577373,4.21158258 70.7071408,4.42283163 70.6402864,4.63175858 L60.4006172,36.6317586 C59.7796467,38.5723542 57.8770226,40 55.9117604,40 L3.41133375,40 C1.20219475,40 -0.302052408,38.209139 0.0515036811,36 C0.0853658811,35.7884174 0.135962351,35.5771684 0.202816821,35.3682414 L10.442486,3.36824142 C11.0634565,1.42764576 12.9660807,0 14.9313428,0 Z"/><path id="路径" fill="#FFF" d="M38.2850256,31.0884429 L51.1568359,8.60679014 L43.7466253,8.60679014 C43.0879399,8.57913743 42.4566997,8.93862265 42.1822475,9.51932955 C39.9591843,13.4183616 36.6794444,18.8608893 35.9642671,20.0282442 C35.2490898,21.195599 35.0190439,21.6830049 35.0190439,21.6830049 C35.0190439,21.6830049 34.6372303,20.569206 34.6383188,19.1378519 C34.6388998,18.3738354 34.7485743,17.5193435 35.083639,16.6954675 C36.1116448,14.167748 38.4215865,9.44867845 39.3828346,7.77720886 C40.3159722,6.145699 41.7431239,5.31611772 43.6368444,5.28846501 L52.3644257,5.28846501 C53.379899,5.28846501 54.230701,5.64795023 54.7521603,6.56048964 C55.2736195,7.47302905 55.1363934,8.35791575 54.6423794,9.24280246 C49.949246,17.4280044 45.2561126,25.6132064 40.5904245,33.7984084 C39.6847321,35.4022656 37.9007925,35.7340981 36.6657574,34.6832951 C36.4461956,34.4897262 36.254079,34.2685045 36.1168529,33.9919774 L26.8952575,17.8981005 C26.5110243,17.2067828 26.0170103,16.9855611 25.2210988,16.9855611 C23.3273783,17.0132138 19.0733685,16.9855611 19.0733685,16.9855611 C19.0733685,16.9855611 22.064898,22.1566178 22.9980356,23.8987385 C24.5190486,26.256043 27.5691287,25.3673267 28.6812687,26.0237934 C29.4226954,26.4614379 29.9434641,27.1633744 30.2435749,28.129603 C30.2435749,28.129603 25.9621199,28.2678665 23.9860637,28.129603 C22.4765764,28.0742976 21.1043151,27.2170636 20.3632941,25.8620808 C18.6891354,23.0415045 17.0424219,20.1656227 15.4231537,17.2897409 C14.7370231,16.1283271 15.1212562,14.6074281 16.3014009,13.9161104 C16.685634,13.6948887 17.1522028,13.5566251 17.5913264,13.5842778 C20.2535132,13.5842778 22.8882547,13.5566251 25.5504415,13.5842778 C27.3069359,13.5842778 28.6791971,14.3862064 29.5574443,15.9071054 C32.3843024,20.801635 38.2850256,31.0884429 38.2850256,31.0884429 Z"/></g></g></svg>