<svg xmlns="http://www.w3.org/2000/svg" xmlns:xlink="http://www.w3.org/1999/xlink" width="1257" height="1257" version="1.1" viewBox="0 0 1257 1257"><title>thumb</title><desc>Created with Sketch.</desc><g id="Page-1" fill="none" fill-rule="evenodd" stroke="none" stroke-width="1"><g id="form"><g id="thumb" fill="#000" fill-rule="nonzero" transform="translate(255.000000, 488.000000)"><path id="path4552" d="M29.8898399,276.534618 C20.1561131,272.974664 7.85490677,260.594256 3.91420992,250.391721 C0.99915592,242.844622 0.714799978,232.960135 0.714799978,139.177459 L0.714799978,36.2464981 L5.04053216,27.5432026 C10.5777348,16.4024473 21.7905172,6.83587979 33.3227101,3.4132887 C47.0080895,-0.648330582 699.992236,-0.648330582 713.67756,3.4132887 C725.209662,6.83587979 736.422572,16.4024473 741.959665,27.5432026 L746.285434,36.2464981 L746.285434,139.177459 C746.285434,234.395576 746.036607,242.753041 742.964089,250.711117 C738.92944,261.160577 725.11323,274.205609 714.814328,277.289312 C709.33338,278.930432 626.383987,279.423954 372.377222,279.326689 C83.0354168,279.215924 36.1765508,278.833877 29.8898399,276.534618 Z M711.807982,244.284071 L716.207397,239.172556 L716.207397,141.688774 C716.207397,41.70827 716.054272,39.3826497 709.073798,34.0271973 C704.853758,30.7892625 42.1464214,30.7892625 37.9265092,34.0271973 C30.9481676,39.3817023 30.7928373,41.7193464 30.7928373,141.385009 C30.7928373,246.618855 30.5970019,244.470695 40.5581734,248.507738 C42.7314301,249.388499 191.532913,249.936693 375.936821,249.743256 L707.40875,249.395568 L711.807982,244.284071 Z"/></g><text id="I" fill="#000" font-family="AndaleMono, Andale Mono" font-size="211" font-weight="normal" letter-spacing="1.941"><tspan x="323.219" y="701">I</tspan></text><rect id="Rectangle-3" width="931" height="711" x="163" y="280" stroke="#000" stroke-width="40" rx="87"/></g></g></svg>