<?xml version="1.0" encoding="UTF-8"?>
<svg width="1257px" height="1257px" viewBox="0 0 1257 1257" version="1.1" xmlns="http://www.w3.org/2000/svg" xmlns:xlink="http://www.w3.org/1999/xlink">
    <!-- Generator: Sketch 51.3 (57544) - http://www.bohemiancoding.com/sketch -->
    <title>thumb</title>
    <desc>Created with Sketch.</desc>
    <defs></defs>
    <g id="Page-1" stroke="none" stroke-width="1" fill="none" fill-rule="evenodd">
        <g id="unknown" fill="#000000">
            <g id="thumb" transform="translate(213.000000, 206.000000)" fill-rule="nonzero">
                <path d="M73.9654157,857.300377 C28.5640221,847.121033 -6.595454,798.438744 1.048176,756.338167 C3.9977132,740.092359 9.04807751,728.182471 18.0555537,716.230901 C33.5276028,695.701864 52.2435138,683.714841 77.5682865,678.114664 L82.553767,677.012211 L82.553767,429.293872 L82.553767,181.575532 L73.9424825,179.587092 C27.5906025,168.883935 -5.97569532,122.210636 1.03604769,78.2121355 C6.43320203,44.3452498 33.606736,13.2814128 66.5874121,3.27609363 C76.6565237,0.221432143 82.526646,-0.38967398 96.1029435,0.203379615 C111.578655,0.879398789 114.366445,1.59536167 128.220116,8.45173698 C154.113052,21.2664966 172.128114,42.8203997 179.709416,70.0555255 L182.857829,81.3658957 L430.630954,81.3658957 L678.40408,81.3658957 L681.552493,70.0555255 C689.224205,42.4956171 706.741715,21.4680077 732.754284,8.59402059 C746.923419,1.58152804 749.625241,0.881933747 765.158965,0.203379615 C786.030181,-0.7083364 801.922388,3.54023633 818.166206,14.3741792 C873.801214,51.48038 875.162613,125.439014 820.922252,164.096811 C810.201821,171.737412 789.098355,180.82848 781.88072,180.915375 C778.874838,180.951588 778.708142,193.986147 778.708142,428.982887 L778.708142,677.012211 L783.693622,678.114664 C802.976718,682.378809 818.595193,690.537447 831.369136,703.018914 C870.166781,740.92828 870.938098,793.535264 833.247394,831.123578 C796.479204,867.791883 744.076891,868.294565 707.641639,832.328498 C694.892859,819.743877 683.879226,800.798193 680.697039,785.978281 L678.698079,776.668862 L430.661556,776.668862 L182.625016,776.668862 L180.409831,786.174957 C175.210482,808.487103 155.960599,834.812686 136.527341,846.187408 C117.26968,857.459355 93.5035502,861.680967 73.9654157,857.300377 Z M110.987431,817.724185 C122.82686,813.364472 132.667709,804.604814 138.069087,793.61794 C142.63392,784.332622 143.266949,781.082533 143.133773,767.615438 C142.960279,750.066263 140.251114,742.314522 130.539307,731.577867 C121.198529,721.251387 108.42736,716.330471 90.7118261,716.23177 C68.4115541,716.107557 53.5386328,724.627988 44.1124669,742.927747 C38.6533295,753.525975 37.5520821,774.869168 41.8045701,787.656587 C45.8002243,799.671639 58.5724453,812.981078 69.9605701,816.996869 C79.4911773,820.357645 102.717697,820.769413 110.987431,817.724185 Z M790.558502,817.106524 C803.540041,812.688688 815.726439,799.854935 819.610219,786.511564 C823.579115,772.875731 822.468712,753.31818 817.135698,742.927747 C807.776376,724.692738 792.902748,716.153603 770.550083,716.182302 C739.987528,716.221594 720.741488,733.02283 717.673242,762.342326 C715.022797,787.669279 728.162657,809.829635 750.608161,817.887038 C759.07793,820.927485 780.56439,820.507696 790.558502,817.106524 Z M688.893694,728.228734 C695.810605,714.805983 716.76951,693.87271 730.208698,686.964259 L740.628588,681.60791 L740.626775,429.017381 L740.624962,176.42685 L728.912346,170.377968 C714.711722,163.044169 695.521302,143.498406 688.517264,129.234899 L683.681909,119.390277 L430.706516,119.393898 L177.731123,119.397519 L172.391601,129.804649 C165.380601,143.46958 142.733974,165.956384 130.142445,171.755627 L120.624709,176.139168 L120.624709,429.113057 L120.624709,682.086926 L131.048896,687.140059 C144.350847,693.588179 165.203535,714.323797 172.368214,728.227376 L177.731123,738.634522 L430.630954,738.634522 L683.530786,738.634522 L688.893694,728.227376 L688.893694,728.228734 Z M109.590409,140.091928 C121.247387,136.634426 133.290821,126.091965 139.096404,114.263323 C144.798289,102.645951 144.935834,78.8576446 139.37037,66.8804172 C134.519425,56.4408416 125.518765,47.4109926 115.186003,42.6176211 C102.992134,36.9608788 77.5046536,37.2152619 66.2376489,43.1061619 C55.0935408,48.9328008 50.3943356,53.5413558 44.7653111,64.16439 C40.5529426,72.1138939 39.966922,75.315257 39.9592716,90.4193198 C39.9520199,106.121144 40.4206732,108.46857 45.3428291,117.344656 C51.6829282,128.777756 59.3685994,135.121399 72.2790542,139.577477 C83.9406552,143.602502 97.1409205,143.784512 109.590409,140.091928 Z M787.146929,140.230989 C800.001836,136.418176 809.562193,128.832964 815.872631,117.43997 C820.844062,108.464442 821.311337,106.142945 821.311337,90.4193198 C821.311337,75.9051782 820.647852,71.9448483 817.064433,65.0697324 C807.975451,47.631697 794.791574,39.5854302 773.269436,38.3411638 C749.657565,36.9760704 730.601626,47.5155054 721.897467,66.7539047 C716.964905,77.6560923 716.594565,100.425273 721.157767,112.232278 C730.282864,135.842975 759.765799,148.352381 787.146929,140.230989 Z" id="path4371"></path>
            </g>
            <text id="？" font-family="PingFangSC-Medium, PingFang SC" font-size="337" font-weight="400" letter-spacing="4.01221561">
                <tspan x="553.493892" y="777">？</tspan>
            </text>
        </g>
    </g>
</svg>