<?xml version="1.0" encoding="UTF-8"?>
<svg width="1257px" height="1257px" viewBox="0 0 1257 1257" version="1.1" xmlns="http://www.w3.org/2000/svg" xmlns:xlink="http://www.w3.org/1999/xlink">
    <!-- Generator: Sketch 51.3 (57544) - http://www.bohemiancoding.com/sketch -->
    <title>thumb</title>
    <desc>Created with Sketch.</desc>
    <defs></defs>
    <g id="Page-1" stroke="none" stroke-width="1" fill="none" fill-rule="evenodd">
        <g id="button">
            <rect id="Rectangle-2" stroke="#000000" stroke-width="40" x="171" y="252" width="915" height="428" rx="113"></rect>
            <path d="M607.922104,772.498233 L606.85097,772.498233 C599.08525,772.498233 591.855098,774.141343 584.624945,777.975265 C576.323659,758.805654 558.649952,746.756184 538.566195,746.756184 C530.532692,746.756184 522.499189,748.673145 515.269036,752.233216 C506.96775,733.063604 489.294043,721.014134 469.210286,721.014134 C462.783484,721.014134 456.624465,722.109541 450.733229,724.300353 L450.733229,682.127208 C450.733229,652.277385 428.507204,629 400.12216,629 C371.20155,629 347.904391,652.825088 347.904391,682.127208 L347.904391,860.678445 L325.94615,838.496466 C305.059042,817.409894 269.176062,820.969965 252.037922,838.496466 C235.43535,855.475265 223.117312,891.349823 248.556738,917.091873 L382.448454,1053.19611 C385.126288,1055.93463 388.339689,1058.67314 392.088657,1060.86396 C416.189166,1080.85512 444.841994,1094 506.1644,1094 C646.482918,1094 657.997606,1013.21378 657.997606,923.116608 L657.997606,825.625442 C658.265389,796.04947 636.039364,772.498233 607.922104,772.498233 Z M305.862392,866.429329 L353.795627,915.174912 C364.239181,925.855124 381.912887,918.187279 381.912887,903.125442 L381.912887,687.330389 C381.912887,676.924028 390.214173,668.708481 400.389944,668.708481 C410.030147,668.708481 417.2603,676.650177 417.2603,687.330389 L417.2603,846.164311 C417.2603,855.749117 424.758236,863.416961 434.130656,863.416961 C442.96751,863.416961 449.929879,856.570671 451.001013,848.081272 L451.001013,779.618375 C451.001013,768.938163 458.498949,760.996466 468.406936,760.996466 C468.674719,760.996466 476.440439,760.996466 481.528324,766.199647 C484.741725,769.212014 486.080642,773.867491 486.080642,779.618375 L486.080642,866.70318 C486.080642,876.287986 493.578578,883.95583 502.950998,883.95583 C511.787852,883.95583 518.750221,877.109541 519.821355,868.620141 L519.821355,805.360424 C519.821355,794.680212 527.319291,786.738516 536.691711,786.738516 C554.900984,788.107774 555.436551,803.717314 555.436551,805.360424 L555.436551,882.038869 C555.436551,891.623675 562.934487,899.291519 572.306907,899.291519 C581.143761,899.291519 587.838346,892.719081 588.90948,883.95583 L588.90948,828.911661 C588.90948,818.5053 596.6752,810.289753 606.583187,810.289753 C606.583187,810.289753 614.348906,810.015901 619.436791,815.219081 C622.650193,818.231449 624.256893,822.886926 624.256893,829.185512 L624.256893,923.390459 C624.256893,999.795053 624.256893,1060.0424 506.1644,1060.0424 C457.427815,1060.0424 426.63272,1049.63604 402.799995,1025.5371 L276.138431,896.826855 C271.853896,892.44523 269.711629,887.242049 270.247196,881.765018 C270.514979,876.835689 272.92503,871.632509 276.941782,867.524735 C280.958533,863.416961 286.581985,861.5 291.937654,861.5 C297.293322,860.952297 302.381208,862.869258 305.862392,866.429329 Z" id="Shape" fill="#000000" fill-rule="nonzero"></path>
            <path d="M293.100427,693.805374 C302.181624,692.42916 308.858974,684.171876 308.858974,674.538379 C309.126068,624.719436 348.388889,583.983504 397,583.983504 C445.611111,583.983504 484.873932,624.444193 485.141026,674.538379 C485.141026,683.896634 491.818376,692.42916 500.899573,693.805374 C512.384615,695.45683 522,686.373819 522,675.088865 C522,603.800984 465.910256,546 397,546 C328.089744,546 272,603.800984 272,674.813622 C272,686.373819 281.615385,695.45683 293.100427,693.805374 Z" id="Shape" fill="#000000" fill-rule="nonzero"></path>
        </g>
    </g>
</svg>